<?xml version="1.0" encoding="utf-8"?>
<!-- Generator: Adobe Illustrator 27.0.0, SVG Export Plug-In . SVG Version: 6.00 Build 0)  -->
<svg version="1.1" id="Layer_1" xmlns="http://www.w3.org/2000/svg" xmlns:xlink="http://www.w3.org/1999/xlink" x="0px" y="0px"
	 viewBox="0 0 177.5 92.7" style="enable-background:new 0 0 177.5 92.7;" xml:space="preserve">
<style type="text/css">
	.st0{fill:#DE5588;stroke:#DF5588;stroke-width:0.6;stroke-miterlimit:10;}
</style>
<g>
	<path class="st0" d="M82.2,50.3c0.3-1.7,1.3-3.4,2.6-4.6h-10c-9.5,11.5-18.1,19-34.2,19.4c7.7,14.2,26,24.3,47.4,24.3
		c13.3,0,27.8-3.6,38.2-12.6l0.4,0.5c-10.2,9-25.2,12.7-38.6,12.7c-21.8,0-40.3-10.3-48.1-24.9h-1.1c-20.7,0-37-9.8-37-23
		c0-12.7,17.1-23,38.2-23c3.2,0,6.2,0.2,9.1,0.7C59.3,9.6,74.8,3,92.3,3c28,0,51.2,20.5,66.9,20.5c3.4,0,4.8-0.2,7.8-1.8l0.2,0.4
		c-2.9,1.7-4.5,2-8,2c-15.7,0-38.9-20.5-66.9-20.5c-17,0-32.3,6.4-42.6,16.5c12.6,2.3,21.8,8.8,21.8,16.4c0,1.3-0.4,2-1.2,2
		c-0.6,0-1.2-0.3-1.2-1.1c0-1,0.6-1.6,0.6-3.4c0-5.4-8.3-11.2-20.4-13.3c-7.9,8-12.6,18.2-12.6,29.4c0,3.5,0.6,7,1.7,10.2
		c11.8-1.4,25-6.6,34.1-14.6H44l0.2-0.6h28.9c1-1,2.1-2,3-3.1C85.2,31.5,89.6,27.4,96,26.5l0.1,0.4c-6.9,1.2-11.1,6.2-18.5,15.4
		c-0.8,1-1.5,1.9-2.3,2.8h10.5c0.6-0.2,1.1-0.4,1.7-0.4c0.5,0,0.8,0.3,0.8,0.8c0,1.4-3.8,1.4-5.4,5L82.2,50.3z M48.4,20.5
		c-2.7-0.4-5.6-0.6-8.6-0.6c-20.6,0-37.4,10-37.4,22.4c0,10.6,12.9,18.4,29.3,18.4c1.8,0,3.8-0.1,5.8-0.3c-1.1-3.3-1.7-6.7-1.7-10.2
		C36,38.9,40.6,28.6,48.4,20.5z"/>
	<path class="st0" d="M75.7,61.9c-0.2,0-0.3-0.1-0.3-0.2s0.1-0.3,0.3-0.4c3-1,6.9-2.5,10.1-4.1c12.6-12.2,16.2-15.3,19.8-18.8
		c12.9-12.6,19.4-16.6,22.6-16.6c1.3,0,1.8,0.6,1.8,1.8c0,3.8-21.3,23.2-43.5,34c-3,3-4.9,5.1-4.9,5.8c0,0.3,0.4,0.5,1.1,0.5
		c1.8,0,7.5-1,12.3-2.6c0.2,0,0.3,0.1,0.3,0.2c0,0.2-0.1,0.3-0.3,0.4c-4.7,1.5-10.4,2.6-12.5,2.6c-1,0-1.7-0.3-1.7-1
		c0-0.9,1.7-3,3.9-5.1C81.3,59.9,79.2,60.8,75.7,61.9z M129.2,23.6c0-1-0.3-1.2-1.2-1.2c-2.9,0-8.9,3.8-22.1,16.4
		c-3.7,3.5-7.3,7-18.2,17.4C109.8,45.1,129.2,26.9,129.2,23.6z"/>
	<path class="st0" d="M100.4,63.1c0-1.2,0.8-2.7,2.2-4.1l-0.1-0.1c-2.3,1-3.8,1.6-7.7,3c-0.2,0-0.3-0.1-0.3-0.2s0.1-0.3,0.3-0.4
		c3.5-1.2,7-2.6,11.6-4.6c1.4-0.5,3-0.9,4.6-0.9c0.5,0,0.9,0.1,1.2,0.4c0.2-0.1,0.3-0.1,0.5-0.1c0.3,0,0.5,0.2,0.5,0.6
		c0,0.5-0.3,0.9-0.8,1.4c0.3,0.9,2.5,0.9,3.1,0.9c0.2,0,0.3,0.2,0.3,0.3c0,0.2-0.2,0.3-0.3,0.3c-1,0-2.9-0.1-3.7-0.8
		c-3.6,3.6-7.5,5.6-9.6,5.6C101.2,64.4,100.4,64,100.4,63.1z M101.2,63.1c0,0.6,0.4,0.8,1.1,0.8c2.4,0,7.1-3.2,9.1-5.6
		c0-0.7,0.2-1,0.3-1.3c0-0.5-0.2-0.6-0.6-0.6C106.3,56.4,101.2,60.6,101.2,63.1z"/>
	<path class="st0" d="M115.6,59.6c-0.2,0-0.3-0.2-0.3-0.3c0-0.2,0.2-0.3,0.3-0.3c2.8,0,7.1-0.3,14-5c0.5-1.7,1.4-2.2,1.9-2.2
		c0.2,0,0.4,0.2,0.4,0.5c0,0.4-1,1-1.7,2.1c0.3,1.8,0.6,2.9,0.6,3.4c0,0.6-1.9,1.9-3.5,3c-1.3,0.9-2.6,1.8-2.6,2.5
		c0,0.3,0.2,0.6,1,0.6c1.6,0,4.2-0.8,9.1-2.6c0.2,0,0.3,0.1,0.3,0.2c0,0.2-0.1,0.3-0.3,0.4c-4.8,1.8-7.5,2.5-9.2,2.5
		c-1,0-1.5-0.4-1.5-1c0-1.3,0.9-1.8,3.8-3.8c1.1-0.7,2.2-1.6,2.2-2c0-0.6-0.1-1-0.5-2.9C122.8,59.2,118.5,59.6,115.6,59.6z"/>
	<path class="st0" d="M146.4,57.4C149,56.5,152,56,155,56c1.2,0,2.2,0.2,3.3,0.8l0.5-0.3l0.3,0.4c-5.9,3.7-7.2,5.3-7.2,6.3
		c0,0.5,0.4,0.6,1.1,0.6c1.1,0,3.4-0.7,8.2-2.6c0.2,0,0.3,0.1,0.3,0.2c0,0.2-0.1,0.3-0.3,0.4c-4.6,1.8-6.8,2.6-8.3,2.6
		c-1.1,0-1.8-0.5-1.8-1.1c0-0.8,0.4-1.7,1.9-3l-0.1-0.1c-5.7,3-9,3.9-11.5,3.9c-1.2,0-2.1-0.4-2.1-1.3c0-1.1,1.2-2.3,3.2-3.6
		l-0.1-0.1c-2.3,0.9-3.9,1.4-7.7,2.6c-0.2,0-0.3-0.1-0.3-0.2s0.1-0.3,0.3-0.4L146.4,57.4z M155,56.6c-7,0-15,4.2-15,6.3
		c0,0.5,0.6,0.6,1.4,0.6c3.2,0,7.4-1.5,16.2-6.4C156.9,56.8,156,56.6,155,56.6z"/>
</g>
</svg>
